<?xml version="1.0" encoding="utf-8"?>
<!-- Generator: Adobe Illustrator 18.0.0, SVG Export Plug-In . SVG Version: 6.00 Build 0)  -->
<!DOCTYPE svg PUBLIC "-//W3C//DTD SVG 1.1//EN" "http://www.w3.org/Graphics/SVG/1.1/DTD/svg11.dtd">
<svg version="1.1" id="Layer_1" xmlns="http://www.w3.org/2000/svg" xmlns:xlink="http://www.w3.org/1999/xlink" x="0px" y="0px"
	 viewBox="0 0 17 17" enable-background="new 0 0 17 17" xml:space="preserve">
<path fill="#D14B3A" d="M14.9,6c-1-0.6-2.2-1-3.4-1C10.7,5,10,5.1,9.3,5.4l2.6-2.6C12,2.9,12.3,3,12.5,3C13.3,3,14,2.3,14,1.5
	C14,0.7,13.3,0,12.5,0C11.7,0,11,0.7,11,1.5c0,0.2,0,0.4,0.1,0.6L7.2,6C7.1,6,7.1,6,7,6C6.1,6,5.5,6.7,5.5,7.5c0,0.1,0,0.2,0,0.2
	l-3.4,3.4C1.9,11,1.7,11,1.5,11C0.7,11,0,11.7,0,12.5S0.7,14,1.5,14S3,13.3,3,12.5c0-0.2-0.1-0.5-0.2-0.7l2.6-2.6
	C5.1,10,5,10.7,5,11.5c0,1.5,0.6,2.7,1,3.4V17h3v-3H6.7C6.2,13.2,6,12.3,6,11.5C6,10.6,6.2,9.7,6.6,9C6.7,9,6.9,9,7,9
	c0.8,0,1.5-0.7,1.5-1.5c0-0.2,0-0.4-0.1-0.5C10,5.9,12.2,5.7,14,6.6V9h3V6H14.9z M12.5,1C12.8,1,13,1.2,13,1.5C13,1.8,12.8,2,12.5,2
	C12.2,2,12,1.8,12,1.5C12,1.2,12.2,1,12.5,1z M1.5,13C1.2,13,1,12.8,1,12.5S1.2,12,1.5,12S2,12.2,2,12.5S1.8,13,1.5,13z M7,15h1v1H7
	V15z M7,8C6.7,8,6.5,7.8,6.5,7.5C6.5,7.2,6.7,7,7,7s0.5,0.2,0.5,0.5C7.5,7.8,7.3,8,7,8z M16,8h-1V7h1V8z"/>
</svg>
