<?xml version="1.0" encoding="utf-8"?>
<!-- Generator: Adobe Illustrator 18.1.1, SVG Export Plug-In . SVG Version: 6.00 Build 0)  -->
<!DOCTYPE svg PUBLIC "-//W3C//DTD SVG 1.1//EN" "http://www.w3.org/Graphics/SVG/1.1/DTD/svg11.dtd">
<svg version="1.1" id="Layer_1" xmlns="http://www.w3.org/2000/svg" xmlns:xlink="http://www.w3.org/1999/xlink" x="0px" y="0px"
	 viewBox="0 0 283.5 84.8" enable-background="new 0 0 283.5 84.8" xml:space="preserve">
<g>
	<path d="M236.1,14.6c-0.3-0.2-0.7,1.2-4.9,2.2c-2.5,0.6-5,1.1-7.5,0.9c-12.5-1.2-15-2.2-18.1,3.1c-0.5,1.2-1.1,2.1-1.7,2.9
		c-0.2-0.8-0.7-1.6-1.2-2.4c0.1-0.1,0.3-0.2,0.2-0.2c-0.4-0.3-0.4-0.6-0.7-0.7l0,0c0.3,0.1,0.7,0.3,0.7,0.1
		c-0.2-0.1-0.8-0.9-0.8-0.9s0.3,0,0.5,0.1c-0.4-0.7-0.4-0.9-0.4-0.9c0,0,0.4,0.1,0.4,0.1s-0.4-0.8-0.4-0.9c0.2-0.3-0.5-1.7-0.5-2
		c-0.1-0.7-0.3-1.1-0.9-1.7c-0.2-0.2-0.5,0.2-0.6,0.2c-0.5,0.5-0.7,0.4-0.8,0.4c-0.1,0.1-0.1,0.3-0.3,0.4l-0.1,0.1
		c-0.1,0-0.1,0.1-0.2-0.1c-0.1,0.3-0.4,0.4-0.4,0.4s-0.1,0-0.1-0.2c-0.5,0.5-0.4,0.4-0.6,0.5c-1.6-0.4-4.3-0.7-6.1,0
		c0,0-1,0.3-1.2,1c0,0-1.7,0-2.7,1.4c0,0-0.6,0.9-0.2,2c0,0.1,0.1,0.2,0.2,0.3c0.1,0.1,0.1,0,0.1-0.1c-0.1-0.2,0-0.4,0.1-0.5
		c0,0,0.3-0.3,1-0.2c0.6,0.1,1.2,0,1.5,0c0,0,0.8-0.2,1.6,0.7c1.2,1.3,1.8,1.5,2.2,1.7c0.2,0.1,0.4,0.3,0.4,0.9
		c-0.1,0-0.2,0-0.3,0.3c-0.2,0.5-1.3,1.9-2,2.3c0,0-1.6,0.6-1,0.7c0.4,0,0.4,0.3,0.4,0.3s-0.3,0-0.9,0.4c-0.9,0.6-1.1,1.1-1,1.1
		c0.6-0.1,1.3-0.1,1,0.1c-0.5,0.4-1.2,0.7-1.4,1.4c0.3-0.1,0.6,0.3,0.6,0.3c-0.7,0.8-0.8,1.1-0.9,1.5c-0.2,0.3,0.7,0.8,0.7,0.8
		c-0.4,0.7-0.6,1.2-1.1,1.5c0.1,0.2,1-0.1,1-0.1s-0.3,0.5-0.5,1.1c-0.1,0.3-0.1,0.4,0,0.5c0.1,0,0.2,0,0.4-0.1
		c-0.1,0.3-0.2,0.4-0.1,0.6c0.1,0,0.2,0,0.3,0c-0.1,0.4-0.1,0.6-0.1,0.9c0.1,0,0.3-0.3,0.4-0.3c0.1,0.3-0.2,1.2-0.1,1.2
		c0.5,0,0,1.2,0.2,1.5c0,0,0.3,0,0.6-0.3c0.1-0.1-0.3,1.2-0.3,1.5c0,0,0.2-0.1,0.3-0.1c-0.1,0.7,0.1,1.2-0.1,2.1
		c0,0.1-0.2,0.6-0.2,0.7c0.1,0.2,0.5,0,0.4,0.2c-0.2,0.3,0.1,1,0.1,1c0,0.1,0,0.3-0.1,0.4c-0.1,0.3-0.2,0.8,0,0.7
		c0.1-0.1,0.2,0,0.4-0.2c0,0.5,0.1,1.1-0.1,1.6c0.6-0.1,0.6,0,0.6,0.2c-0.1,0.4-0.1,0.6-0.2,0.9c0.2-0.1,0.4,0,0.4,0.2
		c-0.1,0.4-0.1,0.9,0,1c0.3,0,0.3-0.2,0.3-0.2s-0.1,0.4,0,1c-0.1,0.2,0,0.5-0.3,0.5c0.1,0.2,0.4,0,0.5-0.1c0,0.1,0,0.3,0,0.4
		c-0.8,0.3-1.1,0.9-1.7,0.7c-0.6-0.1-0.8-0.1-1,0c-0.3,0.1-0.5,0.2-0.5,0.2s-0.2,0-0.5,0.2c-0.3,0.2-0.6,0.9-0.6,1.1
		c0,0.2,0,0.3,0.1,0.3c0.1,0,0.3-0.6,0.8-0.7c0.3-0.1,0.2,0,0.3,0.1c0.1,0.1,0.6,0.3,1,0.2c0.3-0.1,1.2-0.2,1.5-0.2
		c-0.1,0.2-0.5,0.5-0.5,0.5c-0.3,0.1-0.9,0.1-1.2,1c-0.2,0.2-0.4,0.9-0.4,1.1c0,0.2,0,0.4,0.1,0.4c0.1,0,0.2-0.5,0.4-0.6
		c0.2-0.1,0.9,0.1,1.5-0.4c0.6-0.5,0.5-0.6,1.2-1.2c0.3-0.3,0.9-1.1,1.4-0.8c0.5,0.3,1.1,0.5,1,1c-0.1,0.2-0.1,0.3-0.1,0.6
		c0,0.3-0.2,0.6-0.1,0.7c0.1,0.1,0.7-0.5,0.8-0.7c0.1-0.2,0.3-0.8,0.2-0.9c0.1-1.4-0.5-1.8-0.5-1.8s0.3-0.3,0.2-0.3
		c-0.2,0-0.4-0.1-0.4-0.1c0.2-0.4,0.3-1.1,0.4-1c0.2,0,0.7,0.7,0.5,0.2c-0.2-0.6-0.2-0.9-0.2-1.1l0-0.1c0-0.1,0.1-0.1,0.2,0
		c0.3,0.2,0.4,1,0.4,0c0-0.9-0.4-2-0.4-2s0.2,0.2,0.5,0.2c0.1-0.5-0.3-1.5-0.3-1.5s0.7,1,0.2-0.7c-0.1-0.2,0.1-0.5,0-0.8
		c0,0-0.2,0.2,0-0.9c0.3,0.2,0.5,0.4,0.7,0.5c0.3,0.2,0.7,0.1,0.9,0.1c0.3,0.1,0.8,0.3,1,0.2c0.2,0.1,0.3,0,0.4,0
		c0.1,0,0.4,0.1,0.6,0c0.1-0.1-1.7,1.9,1.1,5.3c1,1.2,3.1,1.7,3.3,1.9c-0.8-0.2-2.9-0.2-3.4-0.1c-2.4-0.2-2.7,0-3.3,1
		c-0.2,0.1-0.3,0.2-0.4,0.5c-0.1,0.2-0.2,1,0,0.8c0.1-0.1,0.3-0.2,0.4-0.4c0.1,0.2,0.3,0.2,0.4,0.3c0,0.2,0,0.6,0.2,0.6
		c0.1,0,0.1-0.2,0.2-0.3c0,0,0,0,0.1,0c0.3,0.1,0.4,0.2,0.5,0.3c0,0.1,0.1,0.3,0.2,0.3c0-0.1,0.1-0.1,0.2-0.2c1.6,0.3,2.4-0.1,4-0.1
		c1.1,0,2.5,0,2.8,0c0.7,0.2,2.4-0.5,2.4-0.5c0.3,0,2.2,0.4,4.2,0c1.1-0.2,1.9-0.2,2.6-0.7c0.2-0.2,0.9-0.5,1.1-0.7
		c1-0.6,2.1-1.8,2.5-2.8c0.7-1.7,1-2.8,1-4.1c0-0.6-0.1-1.3-0.5-2.6c-0.9-2.8-0.7-3.6-0.4-4.3c0.2-0.2,0.4-0.6,0.9-0.9
		c0.3,0.3,0.5,0.1,0.8,0.3c0.3,0.1,0.5,0.4,0.7,0.6c0.5,0.4,0.8,0.4,1.4,0.4c0.2,0,0.4,0,0.7,0c0.1-0.1,0.1-0.2,0.1-0.3
		c0.2,0.2,0.5,0.4,0.7,0.3c0-0.1-0.1-0.4-0.1-0.5c0.2,0,0.5,0.3,0.7,0.4c0.1,0,0.2,0,0.3,0c0.1-0.1,0-0.2,0.1-0.3c0,0,0,0,0,0
		c0,0.1,0.3,0.1,0.4,0.1c0.1,0,0.1-0.1,0.1-0.1c0.2,0,0.4,0,0.6-0.2c-0.4-0.5-0.8-0.5-1.1-0.7c0.2-0.1,0.3-0.3,0.5-0.4
		c-0.1,0-0.2-0.1-0.2-0.1c-0.1,0-0.2-0.1-0.3-0.1c-0.2-0.1-0.4-0.2-0.5-0.3c-0.1,0-0.2-0.1-0.2-0.1c0,0,0-0.1-0.1-0.1
		c-0.3-0.4-0.4-0.5-0.6-0.6c-0.2,0-0.7-0.3-0.9-0.3c-0.6-0.1-1.4-0.2-1.8-0.1c-0.4,0.1-1.4,0.7-1.8,1c-0.6,0.4-0.6,0.5-0.6,0.5
		c-1,0.6-1.7,2.9-1.2,5.7c0.3,1.3,0.2,0.9,0.4,1.6c0.7,3.4-1.9,5.5-3,6.3c0,0,0,0,0-0.1c0.4-0.6,0.6-1.2,0.8-1.8
		c0.4-1.2,0.7-3.2,0.3-4.3c-0.1-0.8-0.6-2-1-2.5c0.2,0.1,0.2,0.1,0.4,0.1c-0.6-0.4-1.5-2.1-1.8-2.4c0.1-0.1,0.2-0.1,0.3-0.1
		c-0.5-0.4-1.6-1.5-1.6-1.5s0.3,0.1,0.5-0.1c0.1-0.1-1.3-0.7-1.8-1.4c-0.2-0.4,0.1-0.6,0.1-0.6c0.9,0.4,1.5,0.3,1.9,0.1
		c-0.2-0.5-1-1-0.9-1c0.4,0.1,0.9,0.2,0.9,0.2c0.6,0.1,0.8,0.2,1.2-0.1c-0.1-0.3-1.1-0.7-1.3-1c0.7,0.2,1.1,0.4,1.7,0.3
		c0-0.1-0.1-0.4-0.1-0.5c0.5,0.2,1.3,0.5,1.7,0.1c0.1-0.1-1.5-1.3-2.2-2.5c-0.2-0.5,1.3,1.4,2.6,1.6c0.3-0.2,0.1-0.7-0.1-1
		c-0.2-0.3,1.2,0.5,1.2,0.5s0-0.6-0.4-1.4c0.2,0.1,1.8,0.5,2,0.3c0.3-0.2-0.4-1-0.4-1s1.2,0.6,1.5,0.6c0.3,0,0.3-0.2,0.3-0.2
		c-0.1-0.3-0.1-0.6-0.3-1.2c-0.3-0.6-2.6-3.8,0-1.2c0.3,0.3,1.3,1.4,1.7,1.3c0.3,0-0.3-1.3-0.3-1.3s0.8,0.5,1.6,0.6
		c0.3,0-0.1-1-0.3-1.2c-0.5-0.5-0.6-0.8-1.6-1.3c-0.5-0.3,2,0.6,2.4,0.8c0.5,0.3-0.5-1-0.5-1c0.7,0,2.6-0.4,2.8-0.6
		c0.1-0.2-0.7-0.7-0.7-0.7l0.3,0c0,0,1.7,0.1,1.7-0.3c0-0.1-4.1-1.8-3.9-1.8c3,0.3,4.3,0.8,5.8,0.7c1.1,0,1.3-0.4,1.3-0.4
		c-0.2-0.5-2.6-1.1-2.6-1.1l1.2,0.1c2,0,3.4-1,3.4-1.3c0-0.3-1.1-0.6-1.1-0.6c-0.1-0.2,1.5-0.1,1.8-0.8c1.5-0.8,1.4-1.3,1.4-1.3
		c-0.2-0.2-0.8,0-0.8,0s-1.1,0.3-2.6,0.5c-1.5,0.2-1.8-0.1-1.8-0.1c4.6-0.6,5.4-1.6,5.5-2.2C236.6,15.5,236.1,14.6,236.1,14.6
		 M188.9,33L188.9,33C188.9,33,188.9,33,188.9,33"/>
	<path d="M46,41.5v-3.1h0.8l0.4,2.3c0,0,0.9,0.3,1.3,0.3c0.9,0,1.6-0.9,1.6-2.1v-7.3l-1.9-0.4v-0.7h5.4v0.6l-1.9,0.4v7.3
		c0,1.9-1.6,3.1-3.2,3.1C47.5,41.9,46.6,41.7,46,41.5"/>
	<polygon points="60,41.9 56.6,31.5 55.4,31.2 55.4,30.5 60.1,30.5 60.1,31.2 58.4,31.6 60.8,39.7 60.9,39.7 64.2,30.5 65.5,30.5 
		68.4,39.7 68.5,39.7 71.3,31.5 69.8,31.2 69.8,30.5 73.8,30.5 73.8,31.2 72.5,31.5 68.5,41.9 67.5,41.9 64.5,32.8 64.4,32.8 
		61,41.9 	"/>
	<polygon points="91.2,41.1 92.8,40.8 92.1,32.7 92.1,32.7 88.6,41.9 87.6,41.9 84.3,32.6 84.2,32.6 83.5,40.7 85.2,41.1 85.2,41.7 
		80.6,41.7 80.6,41.1 82.3,40.7 83.2,31.6 81.6,31.2 81.6,30.5 85.3,30.5 88.4,39.7 88.5,39.7 91.7,30.5 95.3,30.5 95.3,31.2 
		93.6,31.6 94.5,40.7 96.3,41.1 96.3,41.7 91.2,41.7 	"/>
	<path d="M105.3,41.2l1.3-0.3l-1-3.3h-3.7l-1.2,3.2l1.5,0.4v0.6h-4.2v-0.6l1.4-0.4l4.1-10.2h1.2l3.6,10.3l1.3,0.3v0.6h-4.5V41.2z
		 M102.3,36.6h3.1l-1.3-4.4h-0.1L102.3,36.6z"/>
	<path d="M117.1,36.7c-0.2,0-0.5,0-0.7,0h-1v4.1l1.9,0.4v0.7h-5.4v-0.6l1.9-0.4v-9.2l-1.9-0.4v-0.7h5.2c2.2,0,3.8,1,3.8,3.1
		c0,1.4-0.7,2.3-2.2,2.7l2.7,4.2l1.4,0.5v0.6h-2.7L117.1,36.7z M115.4,31.5v4.3h0.9c1.7-0.1,3.1-0.6,3.1-2.1c0-1.5-1-2.2-2.8-2.2
		H115.4z"/>
	<path d="M130,36.7c-0.2,0-0.5,0-0.7,0h-1v4.1l1.9,0.4v0.7h-5.4v-0.6l1.9-0.4v-9.2l-1.9-0.4v-0.7h5.2c2.2,0,3.8,1,3.8,3.1
		c0,1.4-0.7,2.3-2.2,2.7l2.7,4.2l1.4,0.5v0.6h-2.7L130,36.7z M128.3,31.5v4.3h0.9c1.7-0.1,3.1-0.6,3.1-2.1c0-1.5-1-2.2-2.8-2.2
		H128.3z"/>
	<polygon points="138.1,41.1 140,40.7 140,31.6 138.1,31.2 138.1,30.5 143.5,30.5 143.5,31.2 141.5,31.6 141.5,40.7 143.5,41.1 
		143.5,41.7 138.1,41.7 	"/>
	<path d="M150.8,41.9c-3.3,0-5.5-2.2-5.5-5.4c0-3.6,2.3-6.1,5.8-6.1c3.4,0,5.4,2.2,5.4,5.3C156.6,39,154.4,41.9,150.8,41.9
		 M151,31.2c-2.4,0-3.9,2-3.9,4.9c0,2.8,1.4,5,3.8,5c2.6,0,3.9-2.3,3.9-5C154.8,33.2,153.4,31.2,151,31.2"/>
	<polygon points="160.3,41.1 162.2,40.7 162.2,31.4 159.7,31.4 158.8,33.7 158.2,33.7 158.2,30.5 167.8,30.5 167.8,33.7 167.3,33.7 
		166.2,31.4 163.8,31.4 163.8,40.7 165.7,41.1 165.7,41.7 160.3,41.7 	"/>
	<polygon points="171.6,41.1 173.5,40.7 173.5,31.4 171,31.4 170,33.7 169.5,33.7 169.5,30.5 179.1,30.5 179.1,33.7 178.5,33.7 
		177.5,31.4 175,31.4 175,40.7 177,41.1 177,41.7 171.6,41.7 	"/>
	<path fill-rule="evenodd" clip-rule="evenodd" d="M179.5,38.8c0.8,0,1.5,0.6,1.5,1.5c0,0.9-0.7,1.5-1.5,1.5c-0.8,0-1.5-0.6-1.5-1.5
		C178,39.5,178.7,38.8,179.5,38.8 M179.5,41.6c0.7,0,1.2-0.6,1.2-1.3c0-0.7-0.5-1.3-1.2-1.3c-0.7,0-1.2,0.6-1.2,1.3
		C178.3,41.1,178.8,41.6,179.5,41.6 M178.9,39.5h0.7c0.4,0,0.6,0.2,0.6,0.5c0,0.3-0.2,0.5-0.4,0.5l0.5,0.8H180l-0.5-0.8h-0.3v0.8
		h-0.3V39.5z M179.2,40.2h0.3c0.2,0,0.4,0,0.4-0.3c0-0.2-0.2-0.3-0.4-0.3h-0.4V40.2z"/>
	<path d="M87.6,47.6c-0.3-0.2-0.6-0.3-1.1-0.3c-1.3,0-2.4,0.8-2.4,2.6c0,1.8,1.2,2.7,2.6,2.7c0.3,0,0.6-0.1,0.8-0.2v-1.9l-1-0.2V50
		h1.9v2.8c-0.2,0.1-0.9,0.4-1.8,0.4c-2,0-3.5-1-3.5-3.1c0-1.8,1.4-3.2,3.4-3.2c1,0,1.5,0.2,1.8,0.4v1.6H88L87.6,47.6z"/>
	<path d="M90.3,50.9v-3.4l-1-0.2v-0.4h2.9v0.4l-1.1,0.2v3.4c0,1.3,0.8,1.8,1.7,1.8c1,0,1.7-0.6,1.7-2v-3.1l-0.9-0.2v-0.4H96v0.4
		l-0.8,0.2v3.2c0,1.8-1.3,2.5-2.4,2.5C91.6,53.1,90.3,52.7,90.3,50.9"/>
	<path d="M99.5,52.7l0.7-0.2l-0.6-1.8h-2L97,52.5l0.8,0.2v0.3h-2.3v-0.3l0.8-0.2l2.3-5.6h0.6l2,5.7l0.7,0.2v0.3h-2.5V52.7z
		 M97.8,50.2h1.7l-0.7-2.4h-0.1L97.8,50.2z"/>
	<polygon points="102.3,52.7 103.1,52.5 103.1,47.5 102.3,47.3 102.3,46.9 104.1,46.9 107.4,51.4 107.4,51.4 107.4,47.5 106.5,47.3 
		106.5,46.9 108.8,46.9 108.8,47.2 108,47.5 108,53.1 107.4,53.1 103.8,48 103.8,48 103.8,52.5 104.7,52.7 104.7,53.1 102.3,53.1 	
		"/>
	<path d="M112.7,52.7l0.7-0.2l-0.6-1.8h-2l-0.7,1.8l0.8,0.2v0.3h-2.3v-0.3l0.8-0.2l2.3-5.6h0.6l2,5.7l0.7,0.2v0.3h-2.5V52.7z
		 M111.1,50.2h1.7l-0.7-2.4H112L111.1,50.2z"/>
	<path d="M120.2,48.8l-0.4-1.2c-0.3-0.2-0.6-0.3-1.1-0.3c-1.3,0-2.4,0.8-2.4,2.6c0,2,1.2,2.8,2.6,2.8c0.7,0,1.2-0.3,1.5-0.7h0.2v0.7
		c-0.2,0.1-0.7,0.4-1.8,0.4c-2,0-3.5-1-3.5-3.1c0-1.8,1.4-3.2,3.4-3.2c1.1,0,1.5,0.2,1.8,0.4v1.6H120.2z"/>
	<path d="M125,52.7l0.7-0.2l-0.6-1.8h-2l-0.7,1.8l0.8,0.2v0.3H121v-0.3l0.8-0.2l2.3-5.6h0.6l2,5.7l0.7,0.2v0.3H125V52.7z
		 M123.3,50.2h1.7l-0.7-2.4h-0.1L123.3,50.2z"/>
	<path d="M131,47.6c-0.4-0.2-0.7-0.3-1.1-0.3c-0.8,0-1.2,0.4-1.2,1c0,0.6,0.6,0.8,1.3,1.1c0.9,0.4,1.9,0.8,1.9,2
		c0,1.3-1.2,1.8-2.4,1.8c-0.6,0-1.2-0.1-1.8-0.4v-1.5h0.3l0.3,1c0.5,0.3,0.9,0.3,1.4,0.3c0.7,0,1.2-0.4,1.2-1.2
		c0-0.7-0.7-0.9-1.5-1.2c-0.8-0.3-1.6-0.7-1.6-1.7c0-1.1,0.9-1.8,2-1.8c0.7,0,1.3,0.2,1.7,0.4v1.5h-0.3L131,47.6z"/>
	<polygon points="133.6,52.7 134.6,52.5 134.6,47.4 133.2,47.4 132.7,48.6 132.4,48.6 132.4,46.9 137.7,46.9 137.7,48.6 137.4,48.6 
		136.8,47.4 135.5,47.4 135.5,52.5 136.5,52.7 136.5,53.1 133.6,53.1 	"/>
	<polygon points="140.1,50.2 140.1,52.6 142.2,52.6 142.7,51.6 143.1,51.6 142.9,53.1 138.2,53.1 138.2,52.7 139.2,52.5 139.2,47.5 
		138.2,47.3 138.2,46.9 142.9,46.9 142.9,48.3 142.5,48.3 142.1,47.4 140.1,47.4 140.1,49.7 142.5,49.6 142.5,50.2 	"/>
	<path d="M74.2,60l-0.5-1.5c-0.3-0.2-0.7-0.2-1.1-0.2c-1.5,0-2.7,1-2.7,3.1c0,2.2,1.2,3.2,2.9,3.2c0.8,0,1.3-0.4,1.7-0.8h0.4v1
		c-0.3,0.1-1,0.5-2.2,0.5c-2.3,0-4.2-1.1-4.2-3.7c0-2.3,1.8-3.9,4.2-3.9c1.2,0,1.8,0.3,2.2,0.4V60H74.2z"/>
	<path d="M82.1,65.2c-2.2,0-3.6-1.4-3.6-3.5c0-2.4,1.6-4,3.8-4c2.2,0,3.6,1.4,3.6,3.5C85.9,63.3,84.5,65.2,82.1,65.2 M82.2,58.2
		c-1.5,0-2.3,1.2-2.3,3.1c0,1.8,0.7,3.2,2.2,3.2c1.6,0,2.3-1.4,2.3-3.2C84.4,59.5,83.6,58.2,82.2,58.2"/>
	<path d="M93.4,58.6c-0.4-0.2-0.8-0.4-1.3-0.4c-0.8,0-1.4,0.5-1.4,1.1c0,0.7,0.7,0.9,1.6,1.3c1.1,0.4,2.3,0.9,2.3,2.3
		c0,1.5-1.4,2.1-2.9,2.1c-0.7,0-1.5-0.2-2.2-0.5v-1.9H90l0.3,1.2c0.5,0.3,1.1,0.4,1.6,0.4c0.8,0,1.4-0.4,1.4-1.3
		c0-0.8-0.9-1-1.9-1.4c-0.9-0.4-1.8-0.8-1.8-2.1c0-1.4,1.1-2.2,2.5-2.2c0.9,0,1.7,0.2,2.1,0.5v1.8h-0.6L93.4,58.6z"/>
	<polygon points="99.3,64.6 100.4,64.3 100.4,58.4 99,58.4 98.4,59.9 97.9,59.9 97.9,57.7 104.3,57.7 104.3,59.9 103.8,59.9 
		103.1,58.4 101.8,58.4 101.8,64.3 102.9,64.6 102.9,65.1 99.3,65.1 	"/>
	<path d="M111.2,64.6l0.8-0.2l-0.6-1.9h-2.4l-0.7,1.9l1,0.3v0.5h-2.8v-0.4l0.9-0.2l2.7-6.7h1l2.4,6.7l0.8,0.2v0.5h-3.1V64.6z
		 M109.3,61.8h1.9l-0.9-2.7h-0.1L109.3,61.8z"/>
	<path d="M125.9,61.8H125v2.5l1.2,0.3v0.5h-3.6v-0.5l1.2-0.3v-5.8l-1.2-0.3v-0.5h3.6c1.5,0,2.5,0.7,2.5,2c0,1-0.5,1.5-1.4,1.8
		l1.7,2.6l0.9,0.3v0.5h-2L125.9,61.8z M125,58.4v2.8h0.4c1.1,0,1.9-0.4,1.9-1.4c0-0.9-0.6-1.4-1.7-1.4H125z"/>
	<polygon points="133.1,64.6 134.2,64.3 134.2,58.5 133.1,58.2 133.1,57.7 136.7,57.7 136.7,58.2 135.6,58.5 135.6,64.3 136.7,64.6 
		136.7,65.1 133.1,65.1 	"/>
	<path d="M146.1,60l-0.5-1.5c-0.3-0.2-0.7-0.2-1.1-0.2c-1.5,0-2.7,1-2.7,3.1c0,2.2,1.2,3.2,2.9,3.2c0.8,0,1.3-0.4,1.7-0.8h0.4v1
		c-0.3,0.1-1,0.5-2.2,0.5c-2.3,0-4.2-1.1-4.2-3.7c0-2.3,1.8-3.9,4.2-3.9c1.2,0,1.8,0.3,2.2,0.4V60H146.1z"/>
	<path d="M154.6,64.6l0.8-0.2l-0.6-1.9h-2.4l-0.7,1.9l1,0.3v0.5H150v-0.4l0.9-0.2l2.7-6.7h1l2.4,6.7l0.8,0.2v0.5h-3.1V64.6z
		 M152.7,61.8h1.9l-0.9-2.7h-0.1L152.7,61.8z"/>
</g>
</svg>
