<?xml version="1.0" encoding="utf-8"?>
<!-- Generator: Adobe Illustrator 18.1.1, SVG Export Plug-In . SVG Version: 6.00 Build 0)  -->
<!DOCTYPE svg PUBLIC "-//W3C//DTD SVG 1.1//EN" "http://www.w3.org/Graphics/SVG/1.1/DTD/svg11.dtd">
<svg version="1.1" id="Layer_1" xmlns="http://www.w3.org/2000/svg" xmlns:xlink="http://www.w3.org/1999/xlink" x="0px" y="0px"
	 viewBox="0 0 413 232" enable-background="new 0 0 413 232" xml:space="preserve">
<path fill="#D0AD7C" d="M155.9,30.4c-1.6,1.7-3.2,3.5-4.8,5.2c0.6,0.5,1.2,1.1,1.7,1.7c0.4,0.5,0.9,1.2,1.4,1.9
	c1.3,1.8,2.9,4.1,4.2,5.2c0,0,0.1,0.1,0.1,0.1c-2.1-6.8-2.3-11.9-2.1-14.7C156.3,30.1,156.1,30.2,155.9,30.4"/>
<path fill="#D0AD7C" d="M159.7,27.7c0,0.1,0,0.1,0,0.1l0,0c0,0.1-1.5,7,2.7,18.6c1.5,1.5,2.8,2.2,3.7,2.5c-2-14-1.9-23.6-1.7-27.6
	c-0.5,0.2-1.1,0.5-1.9,1.1C160.2,24.2,159.7,27.7,159.7,27.7"/>
<path fill="#D0AD7C" d="M177.9,54.7c0.2,0,0.5,0,0.7,0c-0.7-6.3-2.9-31.1,3.3-42.3c-0.9-0.1-1.6-0.2-2.4-0.2c-2.1,0-4.1,0.6-6.8,2.1
	c-3.4,1.9-5,5-5.3,5.7c-0.1,1.7-0.7,12.9,1.9,30.2C172,53.9,175.5,54.7,177.9,54.7"/>
<path fill="#D0AD7C" d="M226.2,57c2.6,1,5,1.9,7.7,1.9c1,0,1.9-0.1,2.9-0.4c5.4-1.4,10.6-7,13.3-11.8c2.5-4.5,3.3-10.3,2.2-16.2
	c-2.1-5.7-3.1-8.3-11.9-10.3c-9.5-1.5-14.4,11.8-16.7,18.2c-0.7,1.8-1.3,3.8-1.8,5.7c-1.1,3.6-2.2,7.4-4.1,10.8
	c0.4,0,0.9,0.1,1.3,0.1C221.6,55.2,223.9,56.1,226.2,57"/>
<path fill="#D0AD7C" d="M185.9,60.9c2.5,1.6,7.3,3.4,11.2,3.5c3.3,0.1,6.6-0.6,9.8-2.1c2.1-1,5.7-5.3,6.9-6.9
	c2.5-3.6,3.7-7.8,5.1-12.2c0.6-1.9,1.2-3.9,1.9-5.8c2.4-6.5,7.9-21.4,19.3-20.2c-0.4-0.3-0.7-0.5-1.1-0.9c-0.7-0.5-1.5-1.1-2.4-1.8
	c-1.4-1-2.7-2.3-4.2-3.6c-2.4-2.3-5.2-4.9-9-7.1c-3.9-2.2-8-3.3-12.3-3.3c-3,0-6.3,0.6-9.6,1.6c-8.7,2.8-15.5,9.5-16.1,10.2
	c-7.5,9.7-4.1,40.3-3.8,43.2C182.1,56.3,183.8,59.5,185.9,60.9"/>
<path fill="#978367" d="M33.6,205.5c-8.8,0-17.7-2.8-16-8.8c0.9-3.5,7.2-5.5,15.9-5.2c10.9,0.5,20,3.7,28.6,6.6
	c9.2-4.9,17.9-12.5,27.3-23.4c-6.2-2.2-11.1-6.9-11.1-14c0-10.4,11.9-19.3,26.2-19.3c5.2,0,10.9,1.6,14,5.1
	c6.1-3.4,12.7-5.6,20.1-5.6c6.9,0,12.1,3.4,12.1,9.2c0,8.3-8.9,15.4-17.8,18.5c-6.1,2.2-12.9,2.2-16,0.1c-3.1,3.9-11.4,7.3-19,7.3
	c-1.7,0-3.5-0.2-5.3-0.5c-9.3,10.6-18.8,18.3-28.9,23.2c5.9,2,11.8,3.7,17.8,4c10.8,0.5,16.7-3.9,20-6.8c0.2-0.2,0.7-0.7,0.9-0.5
	c0.2,0.1-0.3,0.6-0.5,0.8c-2.3,2-9.7,9.4-20,8.9c-6.2-0.2-12.8-2.8-19.9-5.6C53.1,203.6,43.7,205.5,33.6,205.5L33.6,205.5
	 M33.7,204.7c9.7,0,18.6-1.9,26.8-5.8c-8-3.2-17.1-6.5-27.2-6.8c-8.3-0.4-13.7,1.4-14.6,4.5C17.2,201.9,26.2,204.7,33.7,204.7
	L33.7,204.7z M104.3,142.9c-13.9,0-25.5,7.6-25.5,17.9c0,6.9,5.1,10.9,11.5,12.6c2.1-2.6,4.4-5.3,6.9-8.3c-3.8-1-6.5-3.2-6.5-6.4
	c0-2.4,1.9-3.4,2.1-3.1c0.2,0.1-1.5,0.8-1.5,3c0,3,2.6,5,6.4,5.8c5.3-6.2,12.1-12.8,20-17.5C114.7,143.9,109.2,142.9,104.3,142.9
	L104.3,142.9z M98.4,174.3c7.7,0,15.2-2.7,18-5.9c-0.7-0.5-1.1-1.3-1.1-2.1c-0.2-1.5,0.6-2.5,1.5-2.5c1,0,1.4,0.9,1.4,1.8
	s-0.4,1.8-0.9,2.7c2.6,1.7,8.7,1.3,15-0.8c8.5-2.9,17.7-9.1,17.7-17.2c0-5.6-4.8-8.7-11.3-8.7c-7.3,0-13.7,2.5-19.3,6.1
	c0.8,1.3,1.4,2.9,1.4,4.7c0,7.4-9.4,13.3-18.9,13.3c-0.4,0-0.8,0-1.1-0.1c-2.6,3.2-4.7,5.9-7,8.5C95.2,174.3,96.8,174.3,98.4,174.3
	L98.4,174.3z M120.1,152.3c0-1.7-0.5-3.1-1.4-4.3c-7.1,4.7-13,11.3-17.5,16.8c0.2,0,0.5,0,0.7,0
	C111.3,164.9,120.1,159.3,120.1,152.3L120.1,152.3z M117.5,165.6c0-0.8-0.2-1.4-0.7-1.4c-0.7,0-1.1,1-1,1.9c0.1,0.7,0.4,1.3,1,1.7
	C117.4,167.1,117.5,166.4,117.5,165.6L117.5,165.6z"/>
<path fill="#978367" d="M123.9,178.9h3.8c-5.7,8.1-11.1,15.6-11.1,18.4c0,1.1,0.5,1.5,1.6,1.5c3.3,0,10.7-6.9,16.3-15.4l0.4,0.1
	c-4.2,6.4-11.9,16-17.2,16c-2.2,0-3.3-1.3-3.3-2.9c0-1.1,0.4-2.2,0.8-3.2l-0.1-0.1c-2,2.2-6.4,6.1-9.8,6.1c-2.9,0-3.9-2.1-3.9-4.4
	c0-6.4,9.1-16.7,15.7-16.7c3.2,0,4.5,1.9,4.9,3.9h0.1L123.9,178.9 M106.9,198.1c3.9,0,13.1-9.3,13.1-16.2c0-1.8-1.2-2.7-2.6-2.7
	c-4.6,0-12.6,9.1-12.6,16.1C104.8,197,105.6,198.1,106.9,198.1z"/>
<path fill="#978367" d="M152.9,183.9c-4.7,7.4-12.2,15.6-22,15.6c-3.7,0-6.8-1.9-6.8-5.7c0-2,1.5-4,3.7-4c1.2,0,2,0.6,2,1.8
	c0,1.1-0.5,2-1.6,2c-0.9,0-1.3-0.5-1.5-1.2c-0.9,0.5-1.1,1.5-1.1,2.4c0,2.7,2.5,4.1,5,4.1c3.3,0,4.9-2.9,4.9-5.7
	c0-1.5-0.6-3.1-1.2-4.7c-0.6-1.6-1.3-3.1-1.3-4.4c0-3.4,3-5.5,6.5-5.5c3.1,0,5.3,1.5,5.3,3.7c0,2-1.8,2.9-3.7,2.9
	c0.5-0.9,0.9-2.2,0.9-3.2c0-1.6-1-2.7-2.8-2.7c-2.2,0-3.3,1.6-3.3,3.5c0,1.7,0.7,3.2,1.5,4.8c0.7,1.5,1.4,3.2,1.4,5.1
	c0,2.9-3,5.7-5.7,6.2l0.1,0.1c8.4-1,15.4-8.5,19.6-15.1L152.9,183.9"/>
<path fill="#978367" d="M152.2,187.8c0-13.3,14.3-23.8,31.8-26.2c1.5-0.2,2.7-0.3,4.2-0.4c4.6-7.3,16.8-10.6,30.3-9.8
	c11,0.6,23.7,2.9,35.8,5.3c6-5.4,11.4-9.7,14.2-11.5c1.6-1,3.5-1.9,4.5-1.2c1,0.7,0.7,1.8,0.2,2.6c-1.6,2.6-5.8,6.8-10.8,11.8
	c2.1,0.4,4.2,0.8,6.3,1.2c5.2-4.2,10.6-8,15.7-11.1c7.7-4.8,15.3-8.1,20.1-8.1c3.2,0,5.5,1,6.4,3.4c3.8,0.3,7.6,2.3,8,6.1
	c0.9,9.2-12.6,14.3-25.2,14c-5.2-0.1-11-0.9-17.1-2c-3.8,3-7.8,6.5-11.2,10c-8.9,8.6-15.6,17.6-16.8,23.7c-0.8,3.9,1.1,7.1,4.8,7.1
	c4.3,0,7.7-2.5,10.6-5.5c4.4-4.5,6.6-11.5,1.9-12.1c-2.7-0.4-5.4,1.4-7.6,3.7c-1.7,1.7-3.4,4.5-3.3,6.9c0,0.2,0.1,0.6-0.2,0.7
	c-0.2,0.1-0.3-0.5-0.3-0.6c-0.2-2.6,1.6-5.7,3.3-7.6c2.1-2.3,5.2-4.1,8.2-3.7c5.2,0.8,4.4,8.4-0.8,13.5c-3,2.9-7,5.3-11.9,5.3
	c-4.3,0-7.2-2.7-6.8-7.5c0.6-7.2,7.8-16.8,16.9-25.8c3.7-3.7,7-6.5,9.7-8.8c-1.3-0.3-2.7-0.5-4.1-0.8c-4.5,3.7-8.7,7.4-12.4,11
	c-10.6,10.5-24.4,25.3-31.7,33.3c-1,1-2.4,2.1-3.3,1.6c-1.4-0.7-0.5-3,0.1-4.4c3.4-6.9,13.9-20.8,24.3-31.6c4-4.1,8.5-8.3,12.5-12.1
	c-1.3-0.2-2.6-0.5-3.9-0.7c-4.8,4.3-9.9,9.1-14.2,13.3c-15.5,15.3-34.3,35-59.2,35.8C166.2,207.3,152.2,202,152.2,187.8L152.2,187.8
	 M152.8,187.8c0,13.4,14.6,17.5,29.3,16.9c25.7-1,42.9-19.7,58-34.6c4.4-4.4,9.2-8.8,13.6-12.8c-11.4-2.1-24.2-3.9-35-4.3
	c-12.9-0.5-24.5,2.2-29.4,8.2c13.2-0.2,24.8,4.8,24.8,14.8c0,10.9-15.3,19-28.9,19c-7.4,0-15.9-3.2-16.2-9.6
	c-0.1-1.8,0.5-2.8,0.8-2.7c0.2,0.1-0.4,0.8-0.2,2.6c0.9,6.4,8.4,8.2,15,8.2c13.5,0,29-7.5,29-17.4c0-10.3-12.6-13.5-25.3-12.6
	c-0.9,1.9-1.3,3.9-1.2,6.4c0.5,6.3,6.7,9.7,12.2,9.7c2,0,2.6-0.7,2.7-0.5c0.1,0.2-0.6,0.9-2.8,1c-5.6,0.1-12.2-3.2-12.8-10.2
	c-0.2-2.3,0.1-4.4,0.9-6.3c-1.3,0.1-2.4,0.2-3.6,0.3C167.2,166.1,152.8,175.7,152.8,187.8L152.8,187.8z M261.8,159
	c-4.3,4.2-9.2,8.9-13.5,13.5c-8.8,9.3-21.8,24.9-25.1,30.6c-1.1,1.9-1.3,2.6-0.9,2.8c0.5,0.2,1-0.1,2.3-1.6
	c6.6-7.5,19.7-21.7,29.7-31.7c4.3-4.2,8.9-8.4,13.7-12.3C266,159.8,264,159.3,261.8,159L261.8,159z M259.3,157.7
	c5.6-5.2,10.5-9.3,12.5-11.7c0.4-0.5,1.1-1.1,0.6-1.5c-0.6-0.6-2.2,0.5-3.1,1c-2.7,1.7-8.1,6.1-13.9,11.4
	C256.6,157.1,257.9,157.4,259.3,157.7L259.3,157.7z M304.2,141.4c-4.9,0-11.9,3.1-19.4,7.7c-4.9,3-10.1,6.7-15,10.6
	c1.4,0.2,2.6,0.5,4,0.6c6.4-5.2,12.6-9.5,18.7-12.4c5.7-2.7,11.4-4.3,17.8-4.3C309.4,141.9,306.6,141.4,304.2,141.4L304.2,141.4z
	 M309.6,144.4c-10.3,0-19.5,6.1-32.2,16.6c5.5,0.8,11.9,1.5,17.2,1.6c11.2,0.3,24.4-3.9,23.5-12.6
	C317.8,146.2,313.6,144.4,309.6,144.4L309.6,144.4z"/>
<path fill="#978367" d="M289.9,176.9h3.8c-5.7,8.1-11.1,15.6-11.1,18.4c0,1.1,0.5,1.5,1.6,1.5c3.3,0,10.7-6.9,16.3-15.4l0.4,0.1
	c-4.2,6.4-11.9,16-17.2,16c-2.2,0-3.3-1.3-3.3-2.9c0-1.1,0.4-2.2,0.8-3.2l-0.1-0.1c-2,2.2-6.4,6.1-9.8,6.1c-2.9,0-3.9-2.1-3.9-4.4
	c0-6.4,9.1-16.7,15.7-16.7c3.2,0,4.5,1.9,4.9,3.9h0.1L289.9,176.9 M272.9,196.1c3.9,0,13.1-9.3,13.1-16.2c0-1.8-1.2-2.7-2.6-2.7
	c-4.6,0-12.6,9.1-12.6,16.1C270.7,195,271.5,196.1,272.9,196.1z"/>
<path fill="#978367" d="M306.2,176.9l-7.4,10.8l0.1,0.1c2.2-2.7,7-7.3,11.2-10.1c0.4-0.8,0.6-1.3,2-1.3c0.8,0,1.5,0.1,2.2,0.1
	c-1.3,1.3-2.9,3.3-2.9,5.6c0,1.8,1.1,2.9,2.3,2.9c2.3,0,4.6-2.1,6-3.4l0.4,0.2c-1.6,1.5-4,3.9-6.9,3.9c-2.5,0-4.2-1.6-4.2-4.3
	c0-0.9,0.2-1.8,0.6-2.5l-0.1-0.1c-3.2,2.2-7.1,5.8-11.3,10.6c-1.5,1.7-3.4,4.7-4.6,7.7h-3.8c4.2-6.7,8.4-13.3,12.8-20.1H306.2"/>
<path fill="#978367" d="M339.7,181.8c-3.4,6-13,15.6-20.9,15.6c-3.3,0-5.1-1.8-5.1-4.9c0-6.8,9.3-16.2,16.3-16.2
	c1.9,0,3.1,0.9,3.1,2.4c0,3.7-9.2,7.2-14.4,8.3c-0.8,1.5-1.5,3.6-1.5,5.6c0,1.8,0.7,3.9,2.9,3.9c5.2,0,14.6-7.3,19.2-15L339.7,181.8
	 M328.7,177.1c-3.2,0-8.2,5.9-9.8,9.4c3.4-0.6,11.3-3.7,11.3-7.7C330.2,177.7,329.6,177.1,328.7,177.1z"/>
<path fill="#978367" d="M354.8,176.9h3.8c-5.7,8.1-11.1,15.6-11.1,18.4c0,1.1,0.5,1.5,1.6,1.5c3.3,0,10.7-6.9,16.3-15.4l0.3,0.1
	c-4.2,6.4-11.9,16-17.2,16c-2.2,0-3.3-1.3-3.3-2.9c0-1.1,0.4-2.2,0.8-3.2l-0.1-0.1c-2,2.2-6.4,6.1-9.8,6.1c-2.9,0-3.9-2.1-3.9-4.4
	c0-6.4,9.1-16.7,15.7-16.7c3.2,0,4.5,1.9,4.9,3.9h0.1L354.8,176.9 M337.7,196.1c3.9,0,13.1-9.3,13.1-16.2c0-1.8-1.2-2.7-2.6-2.7
	c-4.6,0-12.6,9.1-12.6,16.1C335.6,195,336.4,196.1,337.7,196.1z"/>
<path fill="#978367" d="M384.9,181.9c-4.7,7.4-12.2,15.6-22,15.6c-3.7,0-6.8-1.9-6.8-5.7c0-2,1.5-4,3.7-4c1.2,0,2,0.6,2,1.8
	c0,1.1-0.5,2-1.6,2c-0.9,0-1.3-0.5-1.5-1.2c-0.9,0.5-1.1,1.5-1.1,2.4c0,2.7,2.5,4.1,5,4.1c3.3,0,4.9-2.9,4.9-5.7
	c0-1.5-0.6-3.1-1.2-4.7c-0.6-1.6-1.3-3.1-1.3-4.4c0-3.4,3-5.5,6.5-5.5c3.1,0,5.3,1.5,5.3,3.7c0,2-1.8,2.9-3.7,2.9
	c0.5-0.9,0.9-2.2,0.9-3.2c0-1.6-1-2.7-2.8-2.7c-2.2,0-3.3,1.6-3.3,3.5c0,1.7,0.7,3.2,1.5,4.8c0.7,1.5,1.4,3.2,1.4,5.1
	c0,2.9-3,5.7-5.7,6.2l0.1,0.1c8.4-1,15.4-8.5,19.6-15.1L384.9,181.9"/>
<path fill="#978367" d="M407.6,102.1c-1.2,0-2.3-0.4-3.2-1.3c-0.9-0.9-1.3-2-1.3-3.2c0-1.3,0.4-2.3,1.3-3.2c0.9-0.9,2-1.3,3.2-1.3
	s2.3,0.4,3.2,1.3c0.9,0.9,1.3,2,1.3,3.2c0,1.3-0.4,2.4-1.3,3.2C410,101.6,408.9,102.1,407.6,102.1 M407.6,101.4c1.3,0,2.3-0.5,3-1.4
	c0.6-0.8,0.9-1.6,0.9-2.5c0-0.9-0.3-1.7-0.9-2.5c-0.7-0.9-1.7-1.4-3-1.4c-1.2,0-2.2,0.5-3,1.4c-0.6,0.8-0.9,1.6-0.9,2.5
	c0,1.1,0.4,2,1.1,2.7C405.6,101,406.5,101.4,407.6,101.4z M406.2,100v-4.9h1.5c0.5,0,0.9,0.1,1.1,0.3c0.2,0.2,0.4,0.5,0.4,0.9
	c0,0.3-0.1,0.6-0.2,0.8c-0.1,0.2-0.4,0.4-0.6,0.6l1.5,2.3h-0.9l-1.3-2.1H407v2.1H406.2z M406.9,97.3h0.2c0.4,0,0.7-0.1,1-0.2
	c0.2-0.2,0.3-0.4,0.3-0.7c0-0.3-0.1-0.4-0.3-0.6c-0.2-0.1-0.4-0.2-0.8-0.2h-0.4V97.3z"/>
<path fill="#978367" d="M169.6,94c0,0-10.2-0.2-11.8-0.2c0,0-2.1-0.1-2.3-0.1c-0.2,0-1,0-1,0s-1-0.1-1.1,0.5c0,0-0.1,0.5,0.8,0.6
	c0,0,2.1,0.1,2.4,0.2c0,0,2.2,0.1,3.5,1.9c0,0,0.9,1.1,1.1,2.2c0,0,0.3,1.3,0.3,3.5v23.3c0,0,0,4.2-0.1,4.7c0,0-0.1,2.5-0.7,3.2
	c0,0-0.4,1.1-2.8,1.6c0,0-1.2,0.2-1.7,0.2c0,0-1.3,0-1.3,0.5c0,0,0.1,0.6,1,0.5l7.8-0.3c0,0,8,0.2,10.8,0.5c0,0,6.7,0.6,8,0.5
	c0,0,3.9,0.2,7.2-1.9c0,0,1.2-0.7,2.3-2.1c0,0,1.4-1.7,1.8-2.7c0,0,0.9-1.5,0.3-2c0,0-0.5-0.5-1,0.3c0,0-1.6,2.4-3.5,3.3
	c0,0-2.8,1.8-7.3,2.2c0,0-5.2,0.7-8.8,0.3c0,0-3,0.1-4.3-1.2c0,0-0.9-0.5-0.9-2.9v-13.1c0,0-0.2-2,1.1-1.8l9.6,0
	c0,0,3.3,0.2,4.6,1.7c0,0,0.9,1.1,1.2,1.9l0.4,1.4c0,0,0.2,1.2,0.9,1c0,0,0.5,0.2,0.4-1c0,0-0.1-2.3-0.3-3.2c0,0-0.2-2.2,0-3.5
	l0.3-2.4c0,0,0.3-1.8,0.3-2c0,0,0.2-0.6-0.5-0.6c0,0-0.5-0.1-0.7,0.8c0,0-0.3,1.8-0.6,2.1c0,0-0.3,0.9-1.9,1.4c0,0-1.6,0.6-4.5,0.4
	h-8.2c0,0-1.3,0.1-1.8-0.4c0,0-0.3-0.2-0.4-1.7l0-12.3c0,0-0.3-3.1,1.9-3.1l9.4,0c0,0,4.1,0.1,5.5,0.9c0,0,2.1,1,2.9,2.6
	c0,0,0.6,1,0.6,1.5c0,0,0.1,1.2,0.8,1.2c0,0,0.6,0.1,0.5-0.8c0,0,0.1-1.2-0.1-1.9c0,0-0.2-1.8-0.1-2c0,0,0-1.1,0.1-1.9
	c0,0,0.5-2-0.9-1.9c0,0-2,0.3-2.5,0.3c0,0-0.5,0.1-1.9,0.1H169.6"/>
<path fill="#978367" d="M100.1,93.5c1.2-0.1,7-0.5,7-0.5c2.1-0.3,7.5-0.1,7.5-0.1c5.4,0,8.7,2.2,8.7,2.2c4.7,2.7,5,7,5,7
	c0.6,4.3-2.5,7.5-2.5,7.5c-2.3,2.6-6.4,4.3-6.4,4.3c-0.7,0.4-0.4,0.7-0.4,0.7l0.6,1.1l4.6,6.7c3.1,4.1,6.8,7.7,6.8,7.7
	c3.1,2.9,5.3,3.6,5.3,3.6c0.8,0.4,1.8,0.5,1.8,0.5l1,0.5c1,0.6,0.5,0.9,0.5,0.9c-0.2,0.2-1,0.3-1,0.3c-0.6,0.2-1.4,0.2-2.1,0.3
	c-1.1,0-2.2-0.1-2.2-0.1c-4.2-0.1-7.5-2.9-7.5-2.9c-3-2.5-5.2-5.6-5.2-5.6l-4.1-5.2c-1.7-2.4-4.5-5.2-4.5-5.2
	c-1.3-1-2.9-1.3-2.9-1.3c-0.8-0.1-5-0.2-5-0.2c-0.4,0-1.2,0.2-1.2,0.2c-0.2,0-0.3,0.8-0.3,0.8v9.1c0,0.5,0.1,2.7,0.1,2.7
	c0.3,3.6,2.1,4.8,2.1,4.8c1.7,1.5,5.1,1.6,5.1,1.6c1.9,0,1.8,0.4,1.8,0.4c0.1,0.6-0.9,0.6-0.9,0.6c-1.6,0.4-5.6,0-5.6,0
	c-2-0.3-7.9-0.3-7.9-0.3L92,136c-1,0.1-1.1-0.4-1.1-0.4c0-0.3,0.5-0.5,0.5-0.5l1.5-0.3c1.3-0.2,2-0.6,2-0.6c1.6-0.8,2-2.6,2-2.6
	c0.4-1.2,0.2-4.8,0.2-4.8l0-25.2c0-1.2-0.2-2.9-0.2-2.9c-0.1-1.4-0.9-2.5-0.9-2.5c-1-1.3-3-1.6-3-1.6c-0.6-0.2-2.7-0.4-2.7-0.4
	c-0.9-0.2-0.8-0.6-0.8-0.6c0-0.5,0.8-0.5,0.8-0.5l1.6,0l3.9,0.3C97.2,93.7,100.1,93.5,100.1,93.5 M103.7,111.6c-0.1,2.1,2,2.2,2,2.2
	c2,0.4,3.3,0.2,3.3,0.2c7.5-0.5,10.4-4.1,10.4-4.1c5.3-5.8-0.7-11.5-0.7-11.5c-4.2-4.2-12.5-3.8-12.5-3.8c-0.9-0.1-1.9,0.5-1.9,0.5
	c-0.7,0.7-0.6,2.6-0.6,2.6V111.6z"/>
<g>
	<defs>
		<rect id="SVGID_1_" y="0.5" width="412.2" height="231.5"/>
	</defs>
	<clipPath id="SVGID_2_">
		<use xlink:href="#SVGID_1_"  overflow="visible"/>
	</clipPath>
	<path clip-path="url(#SVGID_2_)" fill="#978367" d="M371.9,126.1c0,0-0.2-1.1-1-1c0,0-0.5,0.2-0.6,0.7l0.2,1.1l0.5,2.3l0.2,1.6
		l0.1,1.4c0,0,0,1.1,0.3,1.5c0,0,0.3,0.4,0.7,0.6l2.2,1l3.2,1c0,0,2.7,0.7,4.3,0.8c1.6,0.1,0.9,0.5,9.5,0.3c0,0,6.3-0.4,10.5-3.5
		c0,0,1.9-1.3,2.9-2.6c0,0,1.1-1.3,1.5-2.5c0,0,0.9-2.2,0.7-3.6c0,0,0.3-1.8-1.6-4.9c0,0-1.8-2.7-5.9-4.4c0,0-6.7-2.3-9.8-3.3
		c0,0-5.3-1.7-5.7-1.9c0,0-3.9-1.2-5.4-5.1c0,0-1-2.4-0.2-4.9c0,0,0.7-3,3.7-4.7c0,0,3-1.7,6.6-1.4c0,0,3.2,0.6,4.3,1.2
		c0,0,2.8,1.3,3.6,2.1c0,0,1.9,1.5,2.4,2.4c0,0,1.2,1.7,1.2,2.2l0.5,1.3c0,0,0.3,0.9,1,0.7c0,0,0.5,0,0.4-0.9c0,0-0.6-2.3-0.8-2.5
		c0,0-0.6-1.7-0.6-2.1c0,0-0.3-1.9-0.3-2.2l-0.1-2.4c0,0,0.1-0.9-0.5-0.9c0,0-0.4,0-0.7,0.5c0,0-0.2,1-1.2,0.9c0,0-0.6,0-1.3-0.3
		c0,0-4.8-1.3-6.3-1.5c0,0-5.4-0.7-8.9,0.2c0,0-7.9,1.3-9.6,7.8c0,0-1.4,5.5,1.9,9c0,0,2.5,2.5,6.9,4.1l9.8,3.3c0,0,5.6,1.8,7,3.4
		c0,0,3.7,2.7,2.3,8c0,0-0.9,4.4-6.8,6.2c0,0-2,1.1-7.3,0.9c0,0-4.6-0.1-6.9-1.8c0,0-3.4-1.8-5.1-4.2
		C373.7,129.6,372.3,127.6,371.9,126.1"/>
	<path clip-path="url(#SVGID_2_)" fill="#978367" d="M10,86.4l-0.2-1c-0.2-1-0.9-1.9-0.9-1.9c-0.3-0.6-1.5-1.4-1.5-1.4
		c-0.1-0.1-1.7-0.8-1.7-0.8L3.9,81l-1.2-0.2l-1.6-0.2c0,0,0.7,0.1,0,0c-0.7-0.1-1-0.4-1-0.4c-0.4-1.1,0.7-1,0.7-1
		c0.3-0.1,2.5,0,2.5,0c0.9,0.1,6.5,0.5,6.5,0.5c1.8,0.2,6.3-0.3,6.3-0.3c5.1-0.4,14.6-0.7,14.6-0.7c17,0.2,27.2,6.2,27.2,6.2
		c15.8,8.5,14.7,22.7,14.7,22.7c0,15.5-13.3,22.8-13.3,22.8c-10.6,7.4-25.8,6.3-25.8,6.3l-19.9-0.4c-1,0-6.8,0.3-6.8,0.3
		c-1.6,0.2-4,0.3-4,0.3c-1.9-0.4-0.4-1.2-0.4-1.2l3.3-0.6c3.5-0.9,4-3.3,4-3.3c0.9-1.8,0.3-8.6,0.5-7.5V91.8
		C10.5,90.5,10,86.5,10,86.4 M19.2,131.6c0,2.6,2.6,2.9,2.6,2.9c0.6,0.2,7.5,0.1,7.5,0.1c9.6,0.6,14.5-1.2,14.5-1.2
		c11.9-3.2,16-11.5,16-11.5c5.2-8.4,3.7-17.5,3.7-17.5c-0.3-10.9-12.1-18.2-12.1-18.2c-8.8-5.3-29.5-5-29.5-5
		c-3.2,0.3-2.7,3.5-2.7,3.5L19.2,131.6z"/>
</g>
<path fill="#978367" d="M235.7,94.6c1.7-3,2.6-2.7,2.6-2.7c1.4,0.1,2.2,1.7,2.2,1.7l18.9,36.4c1.1,2.3,1.7,2.4,1.7,2.4l3.4,1.4
	c1.6,0.7,0.8,1.6,0.8,1.6c-0.5,0.6-2,0.1-2,0.1c-3.6-0.9-8.4-0.4-8.4-0.4c-0.6,0-4.5,0.6-4.5,0.6c-1.2,0.1-0.7-1-0.7-1
	c0.1-0.5,0.9-1,0.9-1l1.8-0.4c1.3,0.1,0.4-1.6,0.4-1.6l-6.3-12.7l-21.2,0l-6.1,11.8c-1,2,0.6,2.2,0.6,2.2l2.5,0.6
	c1.3,0.4,1.4,1.3,1.4,1.3c0.6,1.3-1.2,0.8-1.2,0.8c-4.4-1-10.5-0.1-10.5-0.1c-0.5,0.1-1.8,0.2-1.8,0.2c-1.4-0.2-0.7-1.5-0.7-1.5
	c0.1-0.4,1.8-0.7,1.8-0.7c1.6-0.4,3.1-1.2,3.1-1.2c1.2-0.7,2.5-3.1,2.5-3.1L235.7,94.6 M227,115.6h18l-8.7-17.3L227,115.6z"/>
<path fill="#978367" d="M292.6,92.1c-1.6,0.1-1.9,3.3-1.9,3.3l-4.7,34.5l-0.3,1.8c-0.4,1.3-1.6,1.4-1.6,1.4
	c-0.2,0.1-1.7,0.4-1.7,0.4l-2.4,0.4c-1,0.2-0.8,1.1-0.8,1.1c0.2,0.7,1.3,0.8,1.3,0.8c0.3,0,2.2-0.2,2.2-0.2c1.3-0.2,6.3-0.4,6.3-0.4
	s4.4,0.1,6.6,0.6c0,0,2.6,0.3,2.7-0.3c0,0,0.3-0.7-0.9-1.5l-8-1c0,0-1.4,0.3-1.2-1.4l4.1-29c0,0,0.1-0.3,0.2-0.1l20.7,30.5
	c0,0,0.7,1.2,2.2,1.3c0,0,1.4,0.1,1.9-1.3l18.7-29.4c0,0,0.3-0.4,0.4,0l3.7,25.8c0,0,0.9,3.2-1.8,3.7l-3.5,0.8l-0.9,0.2
	c0,0-0.3,0.1-0.4,0.2l0,0.9c0,0,0,0.7,1.2,0.7l8.3-0.8c0,0,6,0,8.3,0.6c0,0,1.9,0.3,2.5,0.1c0,0,0.8,0,0.8-1.1c0,0,0-0.5-0.7-0.7
	l-3.9-0.9c0,0-2.1-0.1-2.2-4.2l-6.1-35c0,0-0.1-1.5-1.4-1.8c0,0-1.3-0.2-1.9,1.4l-20.7,33.8c0,0-0.3,0.4-0.4,0l-3.2-4.7l-19.4-27.8
	C294.8,94.8,293.9,92.4,292.6,92.1"/>
<path fill="#978367" d="M146,220.2c-1.8-1.1-3.4-1.5-5.1-1.5c-3.4,0-5.9,2.4-5.9,5.7c0,3.3,2.4,5.6,6,5.6c1.7,0,3.5-0.6,5.2-1.7v2.3
	c-1.5,0.8-3.1,1.3-5.4,1.3c-5.6,0-8-4.3-8-7.4c0-4.5,3.4-7.9,8.2-7.9c1.5,0,3.1,0.4,5.1,1.2V220.2"/>
<path fill="#978367" d="M158.2,216.7c4.9,0,8,3.5,8,7.6c0,4-3,7.6-8,7.6c-4.9,0-7.9-3.6-7.9-7.6
	C150.2,220.2,153.3,216.7,158.2,216.7 M158.2,230c3.3,0,5.8-2.4,5.8-5.7c0-3.3-2.5-5.7-5.8-5.7c-3.3,0-5.8,2.4-5.8,5.7
	C152.4,227.6,154.8,230,158.2,230z"/>
<path fill="#978367" d="M177.9,220.2c-1.3-1.2-2.5-1.5-3.5-1.5c-1.4,0-2.4,0.7-2.4,1.8c0,2.9,6.4,2.8,6.4,7.5c0,2.3-1.8,4-4.2,4
	c-1.6,0-2.9-0.4-4.2-1.4v-2.7c1.1,1.4,2.5,2.2,3.9,2.2c1.7,0,2.4-1,2.4-1.9c0-3.1-6.4-3.4-6.4-7.5c0-2.4,1.8-4,4.5-4
	c1.1,0,2.3,0.4,3.3,1V220.2"/>
<polyline fill="#978367" points="194.1,218.9 188.9,218.9 188.9,231.8 186.8,231.8 186.8,218.9 181.6,218.9 181.6,216.9 
	194.1,216.9 194.1,218.9 "/>
<path fill="#978367" d="M208.9,231.8h-2.2l-2-4.4h-6.3l-1.9,4.4h-2.2l6.4-15h1.5L208.9,231.8 M199.2,225.5h4.6l-2.4-5.4L199.2,225.5
	z"/>
<path fill="#978367" d="M224.5,216.9c3,0,4.9,1.6,4.9,4.2c0,1.7-0.9,3-2.5,3.6c1.4,0.9,2.2,2.3,3.3,4.1c0.6,1,1,1.5,2,2.9h-2.6
	l-2-3.1c-2-3.1-2.9-3.4-3.9-3.4h-0.9v6.5h-2.1v-14.9H224.5 M222.9,223.4h1.4c2.3,0,2.9-1.2,2.9-2.4c0-1.4-0.8-2.2-2.9-2.2h-1.4
	V223.4z"/>
<rect x="236" y="216.9" fill="#978367" width="2.1" height="14.9"/>
<path fill="#978367" d="M256.1,220.2c-1.8-1.1-3.4-1.5-5.1-1.5c-3.4,0-5.9,2.4-5.9,5.7c0,3.3,2.4,5.6,6,5.6c1.7,0,3.5-0.6,5.2-1.7
	v2.3c-1.5,0.8-3.1,1.3-5.4,1.3c-5.6,0-8-4.3-8-7.4c0-4.5,3.4-7.9,8.2-7.9c1.5,0,3.1,0.4,5.1,1.2V220.2"/>
<path fill="#978367" d="M274.4,231.8h-2.2l-2-4.4h-6.3l-1.9,4.4h-2.2l6.4-15h1.5L274.4,231.8 M264.8,225.5h4.6l-2.4-5.4L264.8,225.5
	z"/>
</svg>
