<?xml version="1.0" encoding="utf-8"?>
<!-- Generator: Adobe Illustrator 18.0.0, SVG Export Plug-In . SVG Version: 6.00 Build 0)  -->
<!DOCTYPE svg PUBLIC "-//W3C//DTD SVG 1.1//EN" "http://www.w3.org/Graphics/SVG/1.1/DTD/svg11.dtd">
<svg version="1.1" id="Layer_1" xmlns="http://www.w3.org/2000/svg" xmlns:xlink="http://www.w3.org/1999/xlink" x="0px" y="0px"
	 viewBox="0 0 168.9 81.1" enable-background="new 0 0 168.9 81.1" xml:space="preserve">
<g>
	<path fill="#FFFFFF" d="M113.3,32.8c-0.9-0.1-1.8-0.1-2.7-0.1c-0.9,0-1.8,0.1-2.7,0.1V12.4c0.9,0.1,1.8,0.1,2.7,0.1
		c0.9,0,1.8-0.1,2.7-0.1V32.8z"/>
	<rect x="15.7" y="59.7" fill="#FFFFFF" width="91.8" height="0.9"/>
	<g>
		<g>
			<path fill="#C72127" d="M43.8,64.9c6.2,0.2,8.7,3.5,8.7,7.1c0,5-4.6,7.9-10.5,7.9h-8.1v-15H43.8z M38.2,78.5h2.5c4,0,7-1.5,7-6.7
				c0-4.1-2.6-5.8-6.6-5.8h-2.8L38.2,78.5L38.2,78.5z"/>
			<path fill="#C72127" d="M71.8,64.9c0.4,0,0.8,0.1,1.2,0.1c0.4,0,0.8-0.1,1.2-0.1c0.9,5.9,1.6,10.7,2.5,15.1
				c-0.8,0-1.6-0.1-2.4-0.1s-1.5,0.1-2.3,0.1c-0.2-3.5-0.8-6.9-1.2-10.2c-2.2,3.4-4.4,6.7-6.4,10.1c-0.4,0-0.7-0.1-1.1,0
				c-1.8-3-4.1-6.4-6.3-9.9c-0.7,3.9-1.1,6.9-1.2,10c-0.5,0-0.9-0.1-1.4-0.1c-0.5,0-0.9,0.1-1.3,0.1c1-4.4,2-9.5,2.9-15.1
				c0.4,0,0.8,0.1,1.2,0.1c0.4,0,0.8-0.1,1.2-0.1c2.1,3.5,4.4,6.9,6.6,10.3C67.2,72.1,69.6,68.6,71.8,64.9z"/>
			<path fill="#C72127" d="M94,77.4l-0.6,1.9c-1.7,0.7-3.8,0.9-5.7,0.9c-6.2,0-10.9-2.9-10.9-7.4c0-5.7,5.2-8.3,11.5-8.3
				c1.9,0,4.2,0.4,5.9,1.1c-0.3,0.7-0.4,1.5-0.7,2.3h-0.4c-1.1-1.2-2.9-2-4.8-2c-4.8,0-6.7,3.5-6.7,6.7c0,3.8,2.4,6.4,6.9,6.4
				c1.8,0,3.9-0.7,5.2-1.6L94,77.4z"/>
		</g>
	</g>
	
		<linearGradient id="SVGID_1_" gradientUnits="userSpaceOnUse" x1="86.631" y1="41.7823" x2="167.8638" y2="41.7823" gradientTransform="matrix(1 0 0 -1 0 81)">
		<stop  offset="0" style="stop-color:#F7C036"/>
		<stop  offset="0.5095" style="stop-color:#CA2A27"/>
		<stop  offset="1" style="stop-color:#FAA71C"/>
	</linearGradient>
	<path fill="url(#SVGID_1_)" d="M139.7,10.4c0,0-27.9-17.7-53.1-3.4c0,0,1,3.1,1.6,4.1c0,0,2.9-1.9,7.7-3.6
		c5.5,12.6,25.8,27.9,25.8,27.9c2.3,1.7,4.4,3.2,6.4,4.6c-5.3,4.6-13.8,9.4-27.2,10.6c0,0,17.7,3.1,30.9-8.3
		c11.8,7.3,19.6,8.9,24.5,8.4c-2.2,8.4-9.2,16.7-24.8,23c0,0,0.9,2.5,3.4,3.2c0,0,22.8-5.6,24.9-27.1c1.5-0.6,2.6-1.4,3.3-2.1
		c0.8,5.2,0.7,11-0.9,17.1c0,0,3.4-0.3,4.8-1.2C167.2,63.7,174.7,32.9,139.7,10.4z M143,14.4c0,0,1.8,1.4,4.4,4
		c1.3,1.8,2.8,4.1,4.3,6.7c-1.9,0.5-5,0.8-9.5-0.7c0.5-4.1-0.2-8.8-4.1-13.2C139.8,12.2,141.4,13.2,143,14.4z M96.2,7.4
		c8.3-3,22.3-5.5,37.7,1.6c1.7,2,4.8,6.7,4,13.7c-5.7-2.7-13.1-7.7-22.5-16.8c0,0,10.3,13.1,22.1,19.3c-0.4,1.6-1,3.4-1.9,5.3
		c0,0-1.3,3.3-5,7.2C111.5,26.6,98.9,11,96.2,7.4z M140.7,42.8c-2.2-0.9-4.3-1.9-6.3-3c1.4-1.5,2.8-3.2,4-5.2c0,0,2.2-3.1,3.3-7.5
		c3.8,1.3,7.7,1.8,11.3,0.6c2.5,5.2,4.5,11.6,4.1,18.1C150.2,46.9,140.7,42.8,140.7,42.8z M160.1,45.1c-0.1-1.4-0.2-2.9-0.4-4.4
		c0,0-1.4-6.4-4.7-13.1c3,4.4,5.8,9.8,7.4,15.9C161.7,44.1,160.9,44.7,160.1,45.1z"/>
	<g>
		<path fill="#FFFFFF" d="M27.8,32c-3.5,0.7-7,1.2-10.5,1.2c-8.3,0-15.7-2.8-15.7-9.1C1.7,17.4,8.8,14,17.9,14
			c3.4,0,6.5,0.5,9.5,1.6c-0.5,0.9-0.9,1.8-1.1,2.7h-0.5c-1.8-1.8-4.6-2.7-7.7-2.7c-6.6,0-9.8,4-9.8,8.5c0,4.7,3.5,7.4,9.4,7.4
			c2,0,3.4-0.4,4.3-0.8v-6.3c1,0.1,2,0.1,2.9,0.1c1,0,2-0.1,2.9-0.1C27.8,24.6,27.8,32,27.8,32z"/>
		<path fill="#FFFFFF" d="M38.8,32.8c-0.9-0.1-1.8-0.1-2.7-0.1c-0.9,0-1.8,0.1-2.7,0.1V12.5c0.9,0.1,1.8,0.1,2.7,0.1
			c0.9,0,1.8-0.1,2.7-0.1C38.8,12.5,38.8,32.8,38.8,32.8z"/>
		<path fill="#FFFFFF" d="M42.8,26.6c0-4.2,3.6-7,9.6-7c5.9,0,9.7,2.5,9.7,6.4c0,4.1-3.5,7-9.7,7C46.6,33.1,42.8,30.6,42.8,26.6z
			 M48.6,26.5c0,1.7,0.3,5.3,3.7,5.3c3-0.1,3.9-3.3,3.9-6.3c0-2.6-1-4.8-3.6-4.8C49.5,20.8,48.6,23.4,48.6,26.5z"/>
		<path fill="#FFFFFF" d="M65.5,12.5c0.9,0.1,1.8,0.1,2.7,0.1s1.8-0.1,2.7-0.1v9.2c1-1.3,3.1-2.1,5.3-2.1c5.2,0,7.7,3.1,7.7,6.3
			c0,1.7-0.6,3.8-2.2,5.1c-1.7,1.4-4,2.1-6.6,2.1c-2.1,0-4.2-0.6-5.4-1.9c-1.2,0.5-2.3,1-3.4,1.5h-0.8V12.5z M74.4,31.9
			c2.4,0,3.7-2.2,3.7-5.5c0-1.7,0-5-3.5-5c-3.5,0-3.7,3.4-3.7,5.1C70.9,28.1,70.9,31.9,74.4,31.9z"/>
		<path fill="#FFFFFF" d="M102.3,30.5c0,1,0.4,1.3,2,1.3v0.6c-0.9,0.3-2.4,0.7-3.5,0.7c-1.8,0-3.3-0.8-3.9-2c-1,1.2-3,2-5,2
			c-3.2,0-5.6-1.2-5.6-3.5c0-2.5,2.3-3.3,7.2-4.1c1-0.2,2-0.3,2.9-0.7c0.5-0.3,0.6-0.6,0.6-1c0-1.3-1.9-2.4-3.7-2.4
			c-2.5,0-4.6,1.2-4.8,1.7H88l-0.5-1.6c1.8-1.2,4.8-1.8,7.3-1.8c3.3,0,7.5,0.9,7.5,3.6L102.3,30.5L102.3,30.5z M96.8,25.8
			c-1,0.3-2.8,0.5-3.9,1.1c-1,0.6-1.3,1.4-1.3,2.2c0,1,0.5,2.1,2.2,2.1c2.4,0,2.9-1.6,3-2.9V25.8z"/>
		<path fill="#FFFFFF" d="M19.1,46.2h6.1c1.2,0,2.3-0.1,3.5-0.1c0,0.2-0.1,0.5-0.1,0.7c0,0.2,0.1,0.5,0.1,0.7
			c-1.2,0-2.3-0.1-3.5-0.1h-6.1v7.8c2.4,0.1,4.8-0.1,7.1-0.1c1.2,0,2.4-0.1,3.6-0.2c0,0.3-0.1,0.5-0.1,0.8c0,0.3,0.1,0.5,0.1,0.8
			H15.7V38.2h14c0,0.3-0.1,0.5-0.1,0.8c0,0.3,0.1,0.5,0.1,0.8c-1.2-0.2-2.4-0.2-3.5-0.3l-3.9-0.1h-3V46.2z"/>
		<path fill="#FFFFFF" d="M45.9,43.7c0.4,0,0.8,0.1,1.3,0.1c0.4,0,0.8-0.1,1.3-0.1c-2.1,3-6.1,8.9-8,12.8c-0.4,0-0.8-0.1-1.2-0.1
			c-0.4,0-0.8,0.1-1.2,0.1c-1.4-2.5-5.2-9.1-7.7-12.8c0.5,0,1.1,0.1,1.8,0.1c0.6,0,1.1-0.1,1.7-0.1c1.1,2.5,3.4,6.6,5.9,10.3
			c0.3-0.3,0.6-0.5,0.7-0.8l2.4-3.8L45.9,43.7z"/>
		<path fill="#FFFFFF" d="M64.2,55.2c-1.9,0.9-4.4,1.6-6.8,1.6c-5.4,0-9.3-2.4-9.3-6.6c0-3.7,3.1-6.6,9-6.6c4.4,0,8.4,2.1,8,6.6
			c-2.7-0.1-5.3-0.1-8-0.1h-5.5c-0.4,3,2,5.6,6.8,5.6c2.7,0,4.8-1.2,5.8-1.8L64.2,55.2z M62,49.1c-0.1-2.3-1-4.7-4.9-4.7
			c-3.7,0-5.3,2.4-5.5,4.7H62z"/>
		<path fill="#FFFFFF" d="M67.1,43.7c0.5,0,1,0.1,1.6,0.1c0.5,0,1-0.1,1.6-0.1v2.4c1.4-1.6,3.5-2.6,6.3-2.6c4.6,0,6.3,1.7,6.3,5.2
			v7.7c-0.6,0-1.1-0.1-1.6-0.1c-0.6,0-1.1,0.1-1.6,0.1v-7.1c0-2.5-0.7-4.4-4.4-4.4c-4.1,0-5.1,2.1-5.1,5.4v6.2
			c-0.6,0-1.1-0.1-1.6-0.1c-0.6,0-1.1,0.1-1.6,0.1C67.1,56.5,67.1,43.7,67.1,43.7z"/>
		<path fill="#FFFFFF" d="M89.6,40.3v3.5h4.2c-0.1,0.4-0.1,0.8,0,1h-4.2v6.7c0,1.6-0.4,4.3,2.9,4.3c0.6,0,1.2-0.1,1.8-0.2v0.6
			c-1.1,0.3-2.2,0.5-3.3,0.5c-3,0-4.7-0.9-4.5-4.2v-7.8H84c0.1-0.3,0.1-0.7,0-1h2.4v-2.7L89.6,40.3z"/>
		<path fill="#FFFFFF" d="M96.5,53.9c0.9,1,2.7,2,4.5,2c1.9,0,3.9-1,3.9-2.4c0-3.6-9.3-1.3-9.3-5.9c0-2.6,2.9-4,6.4-4
			c2,0,3.7,0.4,4.4,0.7c-0.4,0.6-0.7,1.3-0.9,1.9h-0.4c-0.5-0.9-1.9-1.8-3.3-1.8c-2,0-3.6,0.8-3.6,2.2c0,3.4,9.3,1.6,9.3,5.9
			c0,2.9-3.8,4.2-7.2,4.2c-1.6,0-3.5-0.3-4.9-0.9c0.3-0.6,0.7-1.3,0.8-2L96.5,53.9L96.5,53.9z"/>
	</g>
</g>
</svg>
