<?xml version="1.0" encoding="utf-8"?>
<!-- Generator: Adobe Illustrator 18.0.0, SVG Export Plug-In . SVG Version: 6.00 Build 0)  -->
<!DOCTYPE svg PUBLIC "-//W3C//DTD SVG 1.1//EN" "http://www.w3.org/Graphics/SVG/1.1/DTD/svg11.dtd">
<svg version="1.1" id="Layer_1" xmlns="http://www.w3.org/2000/svg" xmlns:xlink="http://www.w3.org/1999/xlink" x="0px" y="0px"
	 viewBox="0 0 17 17" enable-background="new 0 0 17 17" xml:space="preserve">
<path fill="#D14B3A" d="M0,0.3V17h16.7L0,0.3z M1,2.7l3,3L3.3,6.3L4,7l0.7-0.7l0.7,0.7L4.7,7.7l0.7,0.7l0.7-0.7l0.7,0.7L6.1,9.2
	l0.7,0.7l0.7-0.7l0.7,0.7l-0.7,0.7l0.7,0.7l0.7-0.7l0.7,0.7L9,12l0.7,0.7l0.7-0.7l0.7,0.7l-0.7,0.7l0.7,0.7l0.7-0.7l2.5,2.5H1V2.7z
	 M2,15h7.7L2,7.3V15z M3,9.7L7.3,14H3V9.7z"/>
</svg>
