<?xml version="1.0" encoding="utf-8"?>
<!-- Generator: Adobe Illustrator 18.0.0, SVG Export Plug-In . SVG Version: 6.00 Build 0)  -->
<!DOCTYPE svg PUBLIC "-//W3C//DTD SVG 1.1//EN" "http://www.w3.org/Graphics/SVG/1.1/DTD/svg11.dtd">
<svg version="1.1" id="Layer_1" xmlns="http://www.w3.org/2000/svg" xmlns:xlink="http://www.w3.org/1999/xlink" x="0px" y="0px"
	 viewBox="0 0 17 17" enable-background="new 0 0 17 17" xml:space="preserve">
<path fill="#656D78" d="M12.5,0h-8C3.7,0,3,0.7,3,1.5v14C3,16.3,3.7,17,4.5,17h8c0.8,0,1.5-0.7,1.5-1.5v-14C14,0.7,13.3,0,12.5,0z
	 M4.5,1h8C12.8,1,13,1.2,13,1.5V3H4V1.5C4,1.2,4.2,1,4.5,1z M13,4v8H4V4H13z M12.5,16h-8C4.2,16,4,15.8,4,15.5V13h9v2.5
	C13,15.8,12.8,16,12.5,16z M9,14.5C9,14.8,8.8,15,8.5,15S8,14.8,8,14.5S8.2,14,8.5,14S9,14.2,9,14.5z"/>
</svg>
